<svg aria-hidden="true" style="position: absolute; width: 0; height: 0; overflow: hidden;" version="1.1" xmlns="http://www.w3.org/2000/svg" xmlns:xlink="http://www.w3.org/1999/xlink">
<defs>
<symbol id="icon-facebook" viewBox="0 0 32 32">
<path d="M0 0v32h32v-32h-32zM23.019 4.176c0.232-0.005 0.475 0.003 0.725 0.020 0.919 0.001 1.88 0.084 2.832 0.168l-0.103 3.789h-2.559c-1.2-0.027-1.633 0.439-1.672 1.793v2.977h4.334l-0.172 4.059h-4.162v11.299h-4.228v-11.299h-2.936v-4.059h2.936v-3.484c0-2.512 1.062-4.111 3.154-4.922 0.537-0.211 1.154-0.325 1.851-0.34z"></path>
</symbol>
<symbol id="icon-youtube" viewBox="0 0 32 32">
<path d="M15.799 12.001c0.4 0 0.6-0.4 0.6-1v-2.8c0-0.6-0.2-1-0.6-1s-0.6 0.4-0.6 1v2.8c0 0.6 0.2 1 0.6 1zM14.199 23.801c-0.2 0.4-0.6 0.6-0.8 0.6s-0.2 0-0.2-0.2v-5.4h-1.2v5.2c0 0.4 0 0.8 0.2 1 0.2 0.4 0.4 0.4 0.8 0.4s0.8-0.2 1.4-0.8v0.8h1.2v-6.6h-1.4v5zM7.599 17.801h1.4v7.6h1.4v-7.6h1.4v-1.4h-4.2v1.4zM18.799 18.601c-0.4 0-0.8 0.4-1.2 0.8v-3h-1.2v8.8h1.2v-0.6c0.4 0.4 0.8 0.8 1.2 0.8s0.8-0.2 1-0.8c0-0.2 0.2-0.8 0.2-1.4v-2.6c0-0.6 0-1-0.2-1.4-0.2-0.2-0.4-0.6-1-0.6zM18.799 23.401c0 0.6-0.2 0.8-0.6 0.8-0.2 0-0.4 0-0.6-0.2v-4c0.2-0.2 0.4-0.2 0.6-0.2 0.4 0 0.6 0.4 0.6 1v2.6zM22.599 18.601c-0.6 0-1 0.2-1.4 0.6-0.2 0.4-0.4 0.8-0.4 1.6v2.4c0 0.8 0.2 1.2 0.4 1.6 0.4 0.4 0.8 0.6 1.4 0.6s1.2-0.2 1.4-0.8c0.2-0.2 0.2-0.4 0.2-0.8v-1h-1.2v0.8c0 0.4-0.2 0.4-0.6 0.4s-0.6-0.4-0.6-1v-1.2h2.4v-1.4c0-0.8-0.2-1.2-0.4-1.6 0 0.2-0.6-0.2-1.2-0.2zM23.199 21.201h-1.2v-0.6c0-0.6 0.2-1 0.6-1s0.6 0.4 0.6 1v0.6z"></path>
<path d="M0 0v32h32v-32h-32zM18.6 6.2h1.2v5.4c0 0.2 0 0.4 0.2 0.4s0.4-0.2 0.8-0.6v-5.2h1.2v6.6h-1.2v-0.6c-0.4 0.6-1 0.8-1.4 0.8s-0.6-0.2-0.8-0.4c0-0.2-0.2-0.6-0.2-1v-5.4h0.2zM14 8.4c0-0.6 0-1.2 0.4-1.6s0.8-0.6 1.4-0.6c0.6 0 1 0.2 1.4 0.6 0.2 0.4 0.4 0.8 0.4 1.6v2.4c0 0.8-0.2 1.2-0.4 1.6-0.4 0.4-0.8 0.6-1.4 0.6s-1-0.2-1.4-0.6c-0.4-0.4-0.4-0.8-0.4-1.6v-2.4zM10.6 4l1 3.6 1-3.6h1.4l-1.6 5.4v3.6h-1.4v-3.6c-0.2-0.8-0.4-1.6-0.8-3-0.4-0.8-0.6-1.6-1-2.4h1.4zM25.6 25.8c-0.2 1-1.2 1.8-2.2 2-2.4 0.2-5 0.2-7.4 0.2s-5 0-7.4-0.2c-1-0.2-2-0.8-2.2-2-0.4-1.6-0.4-3.2-0.4-4.8 0-1.4 0-3 0.4-4.6 0.2-1 1.2-1.8 2.2-2 2.4-0.2 5-0.2 7.4-0.2s5 0 7.4 0.2c1 0.2 2 0.8 2.2 2 0.4 1.6 0.4 3.2 0.4 4.6 0 1.6 0 3.2-0.4 4.8z"></path>
</symbol>
<symbol id="icon-twitter" viewBox="0 0 32 32">
<path d="M30.72 0h-29.44c-0.708 0-1.28 0.572-1.28 1.28v29.44c0 0.708 0.572 1.28 1.28 1.28h29.44c0.708 0 1.28-0.572 1.28-1.28v-29.44c0-0.708-0.572-1.28-1.28-1.28zM24.612 11.588c0.012 0.188 0.012 0.384 0.012 0.576 0 5.872-4.472 12.636-12.644 12.636-2.52 0-4.856-0.732-6.824-1.992 0.36 0.040 0.704 0.056 1.072 0.056 2.080 0 3.992-0.704 5.516-1.896-1.952-0.040-3.592-1.32-4.152-3.080 0.684 0.1 1.3 0.1 2.004-0.080-1.005-0.204-1.909-0.75-2.557-1.545s-1.001-1.79-0.999-2.815v-0.056c0.588 0.332 1.28 0.536 2.004 0.564-0.609-0.406-1.108-0.955-1.453-1.6s-0.526-1.365-0.527-2.096c0-0.828 0.216-1.584 0.604-2.24 1.116 1.373 2.508 2.497 4.086 3.297s3.307 1.259 5.074 1.347c-0.628-3.020 1.628-5.464 4.34-5.464 1.28 0 2.432 0.536 3.244 1.4 1.004-0.188 1.964-0.564 2.82-1.068-0.332 1.028-1.028 1.896-1.952 2.444 0.896-0.096 1.76-0.344 2.56-0.692-0.604 0.888-1.36 1.676-2.228 2.304z"></path>
</symbol>
<symbol id="icon-menu" viewBox="0 0 41 32">
<path stroke-linejoin="miter" stroke-linecap="round" stroke-miterlimit="4" stroke-width="3.0476" d="M2.539 1.524h35.556"></path>
<path stroke-linejoin="miter" stroke-linecap="round" stroke-miterlimit="4" stroke-width="3.0476" d="M1.524 10.159h37.587"></path>
<path stroke-linejoin="miter" stroke-linecap="round" stroke-miterlimit="4" stroke-width="3.0476" d="M1.524 30.476h37.587"></path>
<path stroke-linejoin="miter" stroke-linecap="round" stroke-miterlimit="4" stroke-width="3.0476" d="M1.524 20.317h37.587"></path>
</symbol>
<symbol id="icon-search" viewBox="0 0 32 32">
<path d="M13.333 24c2.367-0.001 4.665-0.793 6.529-2.251l5.861 5.861 1.885-1.885-5.861-5.861c1.459-1.864 2.251-4.163 2.252-6.531 0-5.881-4.785-10.667-10.667-10.667s-10.667 4.785-10.667 10.667c0 5.881 4.785 10.667 10.667 10.667zM13.333 5.333c4.412 0 8 3.588 8 8s-3.588 8-8 8c-4.412 0-8-3.588-8-8s3.588-8 8-8z"></path>
</symbol>
</defs>
</svg>
